<svg xmlns="http://www.w3.org/2000/svg" width="36" height="60" fill="none"><path fill="#F9F3F0" fill-rule="evenodd" d="M4.777 1.859a1.444 1.444 0 0 0-1.22-.677q-.467 0-.799.183a1.5 1.5 0 0 0-.53.494 2.2 2.2 0 0 0-.297.706 3.6 3.6 0 0 0-.095.817c0 .28.03.53.095.784q.092.38.297.689c.135.202.313.368.53.49q.326.181.8.183c.424 0 .758-.132.994-.394q.359-.396.44-1.041h1.347a3.3 3.3 0 0 1-.276 1.085c-.149.324-.341.6-.585.825a2.5 2.5 0 0 1-.85.523c-.323.117-.682.18-1.07.18a3.2 3.2 0 0 1-1.308-.258 2.8 2.8 0 0 1-.98-.706 3.1 3.1 0 0 1-.61-1.057 3.9 3.9 0 0 1-.215-1.303A4 4 0 0 1 .66 2.05c.141-.408.345-.77.61-1.071a2.8 2.8 0 0 1 .98-.718Q2.827.001 3.557 0q.525.002.988.15.465.155.832.446.365.292.606.722.241.432.301.986H4.937a1.1 1.1 0 0 0-.16-.445m13.251 41.005c8.406 0 15.218-6.904 15.219-15.42-.001-8.516-6.817-15.42-15.219-15.42-8.403 0-15.215 6.898-15.215 15.418s6.809 15.422 15.215 15.422M.503 27.434c0-9.812 7.848-17.765 17.525-17.765 9.681 0 17.529 7.957 17.529 17.766s-7.851 17.762-17.529 17.762c-9.677 0-17.525-7.95-17.525-17.762M17.952 17.3h-7.255v20.28h9.663c3.976 0 6.078-2.842 6.078-5.823 0-2.5-1.343-4.373-3.809-4.884v-.06c1.852-.765 2.97-2.384 2.97-4.541 0-1.991-1.034-3.438-2.352-4.233-1.203-.74-3.53-.74-5.295-.74m.734 8.719h-5.328v-6.449h5.328c2.298 0 4.26.398 4.26 3.21 0 2.13-1.236 3.239-4.26 3.239m-5.324 9.286h6.667c2.295 0 3.755-1.421 3.755-3.633 0-2.643-2.103-3.379-4.343-3.379h-6.079zm22.158 13.64H.54v2.33h34.98zm-.97-2.57q-.06.005-.123.004l.004.004h-.2v-.394h.25l.052.002.015.001.032.001a.3.3 0 0 1 .087.03.13.13 0 0 1 .062.054c.014.023.021.06.021.1a.2.2 0 0 1-.025.114.2.2 0 0 1-.073.062.3.3 0 0 1-.101.023m.284-.456c-.073-.058-.178-.088-.323-.088v.004h-.476v1.236h.193v-.534h.2l.333.534h.204l-.349-.544a.43.43 0 0 0 .233-.092c.058-.056.09-.133.09-.247q0-.182-.105-.269m-1.002 1.174a.948.948 0 0 1-.247-.648c0-.132.021-.246.065-.356a.84.84 0 0 1 .792-.545.85.85 0 0 1 .61.257.96.96 0 0 1 .247.644 1 1 0 0 1-.07.358.8.8 0 0 1-.177.29.9.9 0 0 1-.273.192.85.85 0 0 1-.337.066.85.85 0 0 1-.338-.066.9.9 0 0 1-.272-.192m-.131-1.398a1.005 1.005 0 0 0-.305.75c0 .152.022.292.08.42a1.03 1.03 0 0 0 .962.64 1.1 1.1 0 0 0 .41-.077 1 1 0 0 0 .327-.224c.095-.096.17-.206.225-.339.059-.128.084-.268.084-.42q.001-.225-.084-.42a1 1 0 0 0-.225-.33 1 1 0 0 0-.737-.302 1.042 1.042 0 0 0-.737.302M8.964 5.727q-.529-.002-.813-.28l-.004.011q-.282-.278-.308-.898h3.304a3.3 3.3 0 0 0-.087-1.034 2.6 2.6 0 0 0-.403-.88 2.04 2.04 0 0 0-.712-.614 2.2 2.2 0 0 0-1.02-.229 2.35 2.35 0 0 0-.952.188 2.3 2.3 0 0 0-.74.515 2.3 2.3 0 0 0-.48.777 2.7 2.7 0 0 0-.167.968q0 .537.164.986.164.453.464.773c.204.214.447.38.738.497.286.118.613.177.973.177q.778-.002 1.329-.36.55-.361.817-1.197H9.959q-.065.216-.337.409a1.1 1.1 0 0 1-.658.19m-.076-2.974q.458.001.686.25.23.25.316.736H7.842c.008-.092.026-.191.058-.305a1 1 0 0 1 .167-.324q.12-.15.32-.254.201-.104.501-.103m4.02-.835v.86h.018a1.56 1.56 0 0 1 .585-.713 1.8 1.8 0 0 1 .418-.203q.221-.071.46-.07.125 0 .277.045v1.185a2 2 0 0 0-.215-.03h-.01q-.12-.013-.23-.014-.343 0-.584.117-.239.116-.385.32c-.098.137-.167.291-.207.472q-.061.27-.062.585v2.094h-1.256V1.918zm5.124.853v-.853h-.93V.526h-1.256v1.392h-.763v.853h.763v2.742q.001.353.116.567c.08.144.182.254.316.331q.2.12.461.159.257.04.552.04.185 0 .381-.01.197-.011.356-.038v-.986q-.087.015-.185.026c-.065.007-.13.007-.203.007-.21 0-.356-.037-.425-.107q-.105-.105-.105-.43v-2.3zm.73-1.571V.147h1.256V1.2zm1.256.718v4.64h-1.256v-4.64zm.501 0v.853h.752v3.795h1.26v-3.79h.868V1.92h-.868v-.28q0-.286.109-.408.11-.121.367-.121.239-.001.46.025V.184q-.1-.004-.206-.013l-.12-.009a4 4 0 0 0-.338-.015q-.77-.002-1.15.394-.382.398-.382 1.016v.36zm3.733-.718V.147h1.257V1.2zm1.257.718v4.64h-1.257v-4.64zm2.8 3.809q-.53-.002-.814-.28l.003.011q-.282-.278-.308-.898h3.304a3.4 3.4 0 0 0-.09-1.034 2.6 2.6 0 0 0-.404-.88 2 2 0 0 0-.711-.614 2.2 2.2 0 0 0-1.02-.229 2.35 2.35 0 0 0-.952.188 2.3 2.3 0 0 0-.74.515 2.3 2.3 0 0 0-.48.777 2.8 2.8 0 0 0-.167.968q0 .537.163.986.165.453.465.773.303.321.737.497c.287.118.614.177.973.177q.78-.002 1.33-.36.545-.361.813-1.197h-1.108q-.065.216-.337.409a1.1 1.1 0 0 1-.658.19m-.077-2.974c.305 0 .538.085.686.25h-.003q.229.25.316.736h-2.045c.008-.092.026-.191.058-.305a1 1 0 0 1 .167-.324q.12-.15.32-.254.201-.104.501-.103m6.075 3.213q-.222.377-.581.545a1.9 1.9 0 0 1-.81.165q-.511.001-.904-.202a1.8 1.8 0 0 1-.643-.548 2.6 2.6 0 0 1-.381-.795 3.3 3.3 0 0 1-.127-.935c0-.324.043-.611.127-.902.084-.29.214-.545.381-.77a1.845 1.845 0 0 1 1.518-.736q.409 0 .774.177c.247.118.439.287.58.516h.019V.147h1.256V6.56h-1.194v-.593zm-.054-2.293a1.4 1.4 0 0 0-.182-.467 1 1 0 0 0-.334-.328.95.95 0 0 0-.512-.125c-.203 0-.381.04-.523.125a1 1 0 0 0-.341.331 1.6 1.6 0 0 0-.186.472 2.5 2.5 0 0 0 .004 1.089q.062.269.2.482.136.21.345.342a.9.9 0 0 0 .5.13q.31 0 .52-.126a.96.96 0 0 0 .334-.339 1.5 1.5 0 0 0 .178-.478 2.8 2.8 0 0 0 0-1.108zM2.635 55.061c.487 0 .911.342.973.791h.948c-.12-1.045-.94-1.627-1.921-1.627-1.38 0-2.19 1.086-2.19 2.385 0 1.3.81 2.345 2.19 2.345 1.093 0 1.86-.722 1.96-1.848h-.95c-.073.596-.41 1.012-1.01 1.012-.879 0-1.21-.718-1.21-1.509s.331-1.55 1.21-1.55m4.005.43c1.017 0 1.67.681 1.67 1.726 0 1.046-.653 1.72-1.67 1.72s-1.667-.685-1.667-1.72.654-1.725 1.667-1.725m0 2.768c.607 0 .785-.526.785-1.042 0-.515-.182-1.048-.785-1.048s-.78.526-.78 1.048c0 .523.18 1.042.78 1.042m3.061-2.686H8.86v3.268h.886v-1.472c0-.575.225-1.05.875-1.05.105 0 .236.012.32.03v-.835a.7.7 0 0 0-.193-.03c-.432 0-.871.284-1.031.696H9.7zm2.423.007v.416h.01c.211-.346.56-.504.96-.504 1.012 0 1.466.828 1.466 1.755 0 .872-.472 1.69-1.416 1.69-.385 0-.755-.17-.966-.494h-.014V60h-.886v-4.42zm1.554 1.645c0-.52-.207-1.056-.774-1.056-.566 0-.766.526-.766 1.056s.2 1.038.774 1.038c.573 0 .766-.504.766-1.038m4.503-.008c0-1.044-.658-1.725-1.674-1.725-1.01 0-1.664.691-1.664 1.725s.647 1.72 1.664 1.72 1.674-.674 1.674-1.72m-.886 0c0 .516-.182 1.042-.788 1.042-.6 0-.781-.519-.781-1.042 0-.522.174-1.048.78-1.048s.789.533.789 1.048m2.273-1.644v.607h.015c.16-.412.599-.696 1.027-.696.062 0 .138.011.193.03v.835a1.7 1.7 0 0 0-.32-.03c-.65 0-.875.475-.875 1.05v1.472h-.886v-3.268zm3.014-.081c-.726 0-1.467.25-1.518 1.093h.886c.033-.354.25-.494.588-.494.31 0 .574.074.574.442 0 .304-.344.344-.77.395q-.136.015-.28.036c-.548.077-1.096.253-1.096.993 0 .67.487.98 1.097.98.396 0 .806-.107 1.085-.405.004.106.033.213.062.316h.9c-.083-.136-.112-.43-.112-.729v-1.7c0-.784-.773-.927-1.416-.927m.003 1.913c.21-.03.413-.059.527-.158l.004.004v.335c0 .195-.03.75-.72.75-.29 0-.544-.084-.544-.416 0-.33.247-.426.523-.482q.104-.019.21-.033m3.203-1.825h.65v.6h-.65v1.619c0 .305.077.38.375.38.094 0 .181-.008.275-.027v.703a3.3 3.3 0 0 1-.519.033c-.54 0-1.017-.128-1.017-.776v-1.929h-.537v-.6h.537v-.979h.886zm1.315-.504h.886v-.74h-.886zm.886.508h-.886v3.268h.886zm2.262-.092c1.017 0 1.674.68 1.674 1.725 0 1.046-.657 1.72-1.674 1.72s-1.663-.685-1.663-1.72.653-1.725 1.663-1.725m0 2.767c.607 0 .788-.526.788-1.042 0-.515-.181-1.048-.788-1.048-.606 0-.78.526-.78 1.048 0 .523.18 1.042.78 1.042m3.087-2.68h-.843l.004.005v3.268h.886v-1.715c0-.667.203-.939.686-.939.41 0 .567.265.567.803v1.847h.886v-2.01c0-.81-.24-1.346-1.18-1.346-.378 0-.763.176-.988.544h-.018z" clip-rule="evenodd"/></svg>